<svg xmlns="http://www.w3.org/2000/svg" viewBox="0 0 64 64.43"><defs><style>.cls-1{fill:#0eb796;}.cls-2{fill:none;}</style></defs><title>favicon</title><g id="Capa_2" data-name="Capa 2"><g id="Capa_1-2" data-name="Capa 1"><path class="cls-1" d="M32.91,20.56A10.33,10.33,0,0,1,43.28,30.89a1.42,1.42,0,0,0,1.43,1.43h0a1.43,1.43,0,0,0,1.44-1.43,13.18,13.18,0,0,0-3.86-9.38,13.52,13.52,0,0,0-9.38-3.83,1.44,1.44,0,1,0,0,2.88Z"/><path class="cls-1" d="M32.91,26.07A4.92,4.92,0,0,1,37.79,31a1.44,1.44,0,1,0,2.87,0,7.73,7.73,0,0,0-7.75-7.75,1.44,1.44,0,1,0,0,2.87Z"/><path class="cls-1" d="M45.26,39.47l-6.19-3.19a2.06,2.06,0,0,0-2.55.54l-2.27,2.91a22.86,22.86,0,0,1-5.84-4.28,23.06,23.06,0,0,1-4.34-5.93l2.87-2.23a2,2,0,0,0,.55-2.55l-3.16-6.16a2,2,0,0,0-2.94-.76l-3.95,2.61a3.09,3.09,0,0,0-1.34,2.75,19.54,19.54,0,0,0,.48,3.51,29.21,29.21,0,0,0,7.75,12.82,29,29,0,0,0,12.83,7.78,25,25,0,0,0,3.54.48,3.1,3.1,0,0,0,2.77-1.41l2.55-4A2,2,0,0,0,45.26,39.47Z"/><path class="cls-1" d="M32.51,64,4.79,48V16L32.49,0,60.21,16V48ZM10.56,44.67,32.51,57.33,54.44,44.66V19.33L32.49,6.67,10.56,19.34Z"/><rect class="cls-2" y="0.43" width="64" height="64"/></g></g></svg>