<svg xmlns="http://www.w3.org/2000/svg" viewBox="0 0 529.24 110.85"><defs><style>.cls-1{fill:#20bfa0;}.cls-2{fill:#fff;}</style></defs><g id="Capa_2" data-name="Capa 2"><g id="Capa_1-2" data-name="Capa 1"><path class="cls-1" d="M48.72,35.6a17.92,17.92,0,0,1,18,17.9A2.48,2.48,0,0,0,69.17,56h0a2.48,2.48,0,0,0,2.48-2.49A22.84,22.84,0,0,0,65,37.26a23.38,23.38,0,0,0-16.25-6.63,2.49,2.49,0,0,0,0,5Z"/><path class="cls-1" d="M48.72,45.16a8.48,8.48,0,0,1,8.45,8.45,2.49,2.49,0,0,0,5,0A13.4,13.4,0,0,0,48.72,40.19a2.49,2.49,0,1,0,0,5Z"/><path class="cls-1" d="M70.11,68.36,59.39,62.84a3.58,3.58,0,0,0-4.42.94l-3.92,5a39.35,39.35,0,0,1-10.12-7.4,39.86,39.86,0,0,1-7.52-10.28l5-3.86a3.52,3.52,0,0,0,.93-4.43L33.85,32.18a3.53,3.53,0,0,0-5.08-1.32l-6.85,4.53a5.37,5.37,0,0,0-2.32,4.75,35.1,35.1,0,0,0,.83,6.08c2,7.62,6.74,15.52,13.43,22.21S48.45,79.92,56.08,81.9a39.28,39.28,0,0,0,6.13.83A5.39,5.39,0,0,0,67,80.3l4.42-6.91A3.5,3.5,0,0,0,70.11,68.36Z"/><path class="cls-1" d="M48,110.85,0,83.15,0,27.73,48,0,96,27.7l0,55.43ZM10,77.38,48,99.3l38-22V33.48L48,11.55l-38,22Z"/><path class="cls-2" d="M119.92,28h24.3c9.44,0,19.32,2.75,19.32,16.82,0,12.46-9.25,17.71-19.31,17.72H131.15V83.72H119.94ZM142.8,53.37c5.43,0,9.53-1.7,9.52-8.1,0-6.24-3.65-8-9.52-8H131.14V53.37Z"/><path class="cls-2" d="M169.67,25.32h10.59V48c2.49-2.58,6.32-4.63,12.19-4.63,8.81,0,11.66,4.89,11.66,13.34v27H193.54v-25c0-3.29-.89-6-5.52-6-5.25,0-7.74,2-7.74,9.08v22H169.69Z"/><path class="cls-2" d="M210.26,64.92V62.69c0-10.85,4.63-19.31,18.16-19.31s18.24,8.18,18.25,19v2.31c0,10.77-5.6,19.32-18.24,19.32C216,84.05,210.27,75.6,210.26,64.92ZM236,64.2v-.89c0-7.39-1.61-10.68-7.57-10.68-5.79,0-7.48,3.39-7.47,10.77v.8c0,7.21,2.05,10.86,7.47,10.86S236,71.5,236,64.2Z"/><path class="cls-2" d="M253.24,44h10.6v4c2.49-2.59,6.32-4.64,12.19-4.64,8.81,0,11.66,4.9,11.66,13.35v27H277.11v-25c0-3.29-.89-6.05-5.52-6.05-5.25,0-7.74,2.05-7.74,9.08v22H253.26Z"/><path class="cls-2" d="M293.83,64.9V62.67c0-12.1,6.23-19.31,18.33-19.32,11.84,0,17,6.41,17,17.8V67H304.25c.35,5.87,2.05,8.72,7.74,8.72,5.43,0,6.59-1.43,7.21-4.45l10,1.51c-1.33,5.34-5.51,11.21-17,11.22C298.82,84,293.84,76.82,293.83,64.9Zm10.5-5.52h14.6c-.18-4.72-1.6-7.21-6.94-7.21S304.78,54.66,304.33,59.38Z"/><path class="cls-2" d="M357.46,52.15H381v31.5h-8.9l-1.16-5.43C368.24,81.88,364,84,356.14,84c-17.18,0-22-10.59-22-26.61v-3.2c0-16.83,6.31-26.71,24.11-26.71,12,0,20.29,5.24,22,16.73l-12,1.78c-.62-6.5-4.27-8.63-10.06-8.63-10.5,0-12.72,6.68-12.72,16.73v3.21c0,10.68,2.41,16.91,12.73,16.91,7.3,0,11.66-3.12,12.28-11.67V61.32h-13Z"/><path class="cls-2" d="M413.36,79.73c-2.49,2.49-6.23,4.27-12.1,4.27-8.81,0-11.57-4.89-11.58-13.34V44h10.5V68.87c0,3.39,1,6.14,5.52,6.14,5,0,7.38-1.69,7.65-7.83V44h10.59V83.64H413.36Z"/><path class="cls-2" d="M433,28.9h10.59V39.31H433Zm0,15h10.59v39.7H433Z"/><path class="cls-2" d="M476.73,79.35C474.59,82,471.3,84,465.25,84c-11.66,0-14.24-7.83-14.25-19V62.63c0-10.32,3.29-19.32,14.33-19.32,5.69,0,8.9,1.6,11.39,4.18V25.24h10.51V83.62h-10.5Zm0-14.06V61.91c0-6.32-1.87-9.34-8.28-9.34-5.69,0-6.85,4-6.85,10.77v.89c0,6.94.72,10.77,6.86,10.77S476.73,71.35,476.72,65.29Z"/><path class="cls-2" d="M493.9,64.84V62.62c0-12.11,6.22-19.32,18.33-19.32,11.84,0,17,6.4,17,17.8V67H504.31c.36,5.87,2.05,8.72,7.75,8.72,5.43,0,6.59-1.43,7.21-4.46l10,1.52C527.9,78.1,523.72,84,512.24,84,498.89,84,493.9,76.77,493.9,64.84Zm10.5-5.52H519c-.18-4.72-1.61-7.21-7-7.21S504.84,54.6,504.4,59.32Z"/></g></g></svg>