<svg xmlns="http://www.w3.org/2000/svg" viewBox="0 0 240 52.48"><defs><style>.cls-1{fill:#20bfa0;}.cls-2{fill:#fff;}</style></defs><g id="Capa_2" data-name="Capa 2"><g id="Capa_1-2" data-name="Capa 1"><path class="cls-1" d="M22.09,16.85a8,8,0,0,1,5.77,2.49,8.71,8.71,0,0,1,2.38,6,1.14,1.14,0,0,0,1.13,1.17h0a1.14,1.14,0,0,0,1.12-1.17,11,11,0,0,0-3-7.69,10.38,10.38,0,0,0-7.37-3.14,1.18,1.18,0,0,0,0,2.35Z"/><path class="cls-1" d="M22.09,21.38a3.72,3.72,0,0,1,2.71,1.18,4,4,0,0,1,1.13,2.82,1.13,1.13,0,1,0,2.25,0,6.42,6.42,0,0,0-1.78-4.5A5.88,5.88,0,0,0,22.09,19a1.18,1.18,0,0,0,0,2.35Z"/><path class="cls-1" d="M31.79,32.36l-4.86-2.61a1.57,1.57,0,0,0-2,.44l-1.78,2.38a17.73,17.73,0,0,1-4.59-3.5,19.08,19.08,0,0,1-3.41-4.86l2.26-1.84a1.7,1.7,0,0,0,.42-2.09l-2.48-5.05a1.57,1.57,0,0,0-2.3-.62L9.94,16.75a2.59,2.59,0,0,0-1,2.25,17.28,17.28,0,0,0,.37,2.88,24.15,24.15,0,0,0,6.1,10.51,22.57,22.57,0,0,0,10.07,6.38,16.93,16.93,0,0,0,2.78.39A2.38,2.38,0,0,0,30.39,38l2-3.27A1.69,1.69,0,0,0,31.79,32.36Z"/><path class="cls-1" d="M21.78,52.48,0,39.36V13.13L21.76,0,43.53,13.11V39.35ZM4.54,36.63,21.78,47,39,36.62V15.85L21.77,5.47,4.54,15.86Z"/><path class="cls-2" d="M54.38,13.26h11c4.28,0,8.76,1.3,8.76,8,0,5.89-4.19,8.38-8.75,8.38H59.47v10H54.39Zm10.38,12c2.46,0,4.32-.8,4.32-3.83s-1.66-3.79-4.32-3.79H59.47v7.62Z"/><path class="cls-2" d="M76.94,12h4.81V22.73a7.15,7.15,0,0,1,5.53-2.19c4,0,5.29,2.31,5.29,6.32V39.62h-4.8V27.78c0-1.55-.4-2.86-2.5-2.86-2.38,0-3.51,1-3.51,4.3V39.63H77Z"/><path class="cls-2" d="M95.35,30.73V29.68c0-5.14,2.1-9.14,8.23-9.15s8.28,3.88,8.28,9v1.09c0,5.1-2.54,9.15-8.27,9.15S95.35,35.79,95.35,30.73ZM107,30.39V30c0-3.5-.73-5-3.44-5s-3.39,1.6-3.39,5.09v.38c0,3.42.92,5.14,3.39,5.14S107,33.85,107,30.39Z"/><path class="cls-2" d="M114.84,20.83h4.81v1.9a7.15,7.15,0,0,1,5.52-2.19c4,0,5.29,2.31,5.29,6.32V39.61h-4.81V27.77c0-1.55-.4-2.86-2.5-2.86-2.38,0-3.51,1-3.51,4.3V39.62h-4.8Z"/><path class="cls-2" d="M133.25,30.72v-1c0-5.73,2.82-9.15,8.31-9.15s7.71,3,7.71,8.43v2.78H138c.16,2.78.93,4.13,3.51,4.13s3-.68,3.27-2.11l4.52.72c-.6,2.52-2.5,5.31-7.7,5.31C135.51,39.78,133.25,36.37,133.25,30.72ZM138,28.11h6.62c-.08-2.24-.73-3.42-3.15-3.42S138.21,25.87,138,28.11Z"/><path class="cls-2" d="M162.1,24.69h10.66V39.6h-4L168.2,37c-1.21,1.73-3.15,2.74-6.7,2.74-7.79,0-10-5-10-12.59V25.66c0-8,2.86-12.64,10.93-12.64,5.45,0,9.21,2.48,10,7.92l-5.45.84c-.29-3.08-1.94-4.09-4.56-4.09-4.77,0-5.78,3.17-5.77,7.93v1.51c0,5.06,1.09,8,5.77,8,3.31,0,5.29-1.48,5.57-5.52V29h-5.89Z"/><path class="cls-2" d="M187.45,37.74a7.16,7.16,0,0,1-5.49,2c-4,0-5.24-2.32-5.24-6.32V20.81h4.76V32.6c0,1.61.44,2.91,2.5,2.91,2.26,0,3.35-.8,3.47-3.71v-11h4.8V39.59h-4.81Z"/><path class="cls-2" d="M196.37,13.68h4.8v4.93h-4.8Zm0,7.12h4.8V39.59h-4.8Z"/><path class="cls-2" d="M216.19,37.57c-1,1.26-2.46,2.19-5.21,2.19-5.29,0-6.46-3.71-6.46-9V29.65c0-4.89,1.49-9.15,6.5-9.15a6.36,6.36,0,0,1,5.16,2V12h4.76V39.59h-4.76Zm0-6.66v-1.6c0-3-.85-4.43-3.76-4.43-2.58,0-3.11,1.9-3.11,5.1v.43c0,3.28.33,5.09,3.11,5.09S216.19,33.77,216.19,30.91Z"/><path class="cls-2" d="M224,30.7V29.64c0-5.73,2.82-9.14,8.31-9.14s7.71,3,7.71,8.42V31.7H228.7c.16,2.78.93,4.12,3.51,4.12s3-.67,3.27-2.1l4.52.71c-.6,2.53-2.5,5.31-7.71,5.31C226.24,39.75,224,36.34,224,30.7Zm4.76-2.62h6.62c-.08-2.23-.73-3.41-3.15-3.41S228.94,25.85,228.74,28.08Z"/></g></g></svg>