<?xml version="1.0" encoding="UTF-8"?><svg id="Layer_0_Image" data-name="Layer 0 Image" xmlns="http://www.w3.org/2000/svg" viewBox="0 0 800 600" x="0px" y="0px" width="800px" height="600px" version="1.1" xmlns:xlink="http://www.w3.org/1999/xlink"><title>1</title><path d="M501.807,360.885c-1.287.8-2.475,2.016-3.874,2.352-24.019,5.778-47.9,12.264-72.141,16.936-30.871,5.952-62.011,10.531-93.077,15.44-7.872,1.244-15.919,1.34-23.852,2.257-5.008.579-9.922,2.006-14.933,2.524-13.065,1.353-26.154,2.489-39.248,3.519-2.28.18-4.643-.867-6.952-.8-1.414.039-2.784,1.609-4.2,1.652-12.289.377-24.586.866-36.875.734-16.71-.18-33.485-.071-50.1-1.541-25.345-2.242-50.491-6.24-72.1-21.279-14.154-9.85-26.445-21.138-28.819-39.827-1.716-13.509,1.845-25.588,8.967-36.615,5.377-8.327,11.923-15.892,17.754-23.937,1.614-2.227,2.313-5.1,3.821-7.424,2.338-3.6,4.561-7.453,7.615-10.383,17.213-16.513,36.369-30.6,56.506-43.271,14.907-9.379,30.03-18.515,45.608-26.713,49.8-26.21,101.539-47.633,156.344-61.141,36.623-9.027,73.669-15.881,111.31-18.155,22.723-1.373,45.594-.38,68.4-.277,18.468.083,36.934.438,55.4.647,33.857.383,67.292,4.012,99.781,13.93,16.25,4.959,31.457,12.065,43.587,24.576,13.947,14.384,18.4,39.959,9.393,57.908a95.132,95.132,0,0,1-31.326,35.949c-7.069,4.9-14.4,9.5-20.977,15-5.605,4.69-9.94,10.881-15.467,15.682-8.639,7.5-17.95,14.227-26.677,21.635-2.795,2.372-4.456,6.03-6.956,8.811-6.794,7.555-13.006,15.89-20.832,22.2-12,9.675-25.034,18.1-37.879,26.684-6.861,4.584-14.246,8.383-21.394,12.536-5.19.3-9.609,2.105-12.691,6.514-8.331,3.77-16.652,7.562-25,11.292-1.8.8-3.694,1.38-5.524,2.043q-10.051,4-20.145,8.025c-2.219,1.491-4.252,3.472-6.686,4.4A1198.016,1198.016,0,0,1,338.651,449.08c-32.121,7.633-64.125,15.9-96.492,22.307-28.394,5.624-57.211,9.128-85.867,13.395-4.58.682-9.3.365-13.945.678a17.8,17.8,0,0,1-13.86-4.852,7.084,7.084,0,0,0-1.568-1.036c-1.468-.756-2.959-1.464-4.442-2.191l4.046-2.965a6.07,6.07,0,0,0-1.008-.826c-1.428-.725-2.881-1.4-4.325-2.094,1.643-.992,3.234-2.751,4.937-2.867,57.385-3.913,112.619-18.933,168.016-32.844,64.8-16.272,128.736-35.477,191.055-59.734,14.351-5.586,28.537-11.635,42.578-17.962a245.386,245.386,0,0,0,29.794-16.112c-5.045,1.705-10.063,3.494-15.139,5.1-10.7,3.379-21.439,6.615-32.12,10.041-1.436.46-2.628,1.684-3.93,2.554ZM189.947,235.207c-5.608,2.517-11.417,4.666-16.789,7.614a303.866,303.866,0,0,0-67.087,49.561c-6.934,6.81-12.222,15.283-18.373,22.906a53.644,53.644,0,0,0-12.225,31.653c-.169,3.439.624,7.861,2.743,10.289,4.845,5.552,11.519,8.749,19.351,10.72-5.34-9.749-7.594-19.45-2.008-28.875a87.152,87.152,0,0,1,14.187-18.086c16.669-16.107,36.7-27.428,57.085-38.042,31.981-16.651,65.547-29.449,99.9-40.249,44.517-14,89.905-23.978,136.334-28.913,16.076-1.709,32.2-3.015,48.335-4.088a453.272,453.272,0,0,1,98.036,4.182c17.675,2.67,35.073,6.3,51.886,12.962,17.1,6.774,32.623,14.843,40.987,32.345,1.017,2.129,2.193,2.855,4.516,1.643,5.551-2.895,11.3-5.419,16.785-8.427,4.469-2.449,9.616-4.57,12.8-8.267a48.636,48.636,0,0,0,12.251-29.242c.515-8.724-.912-17.47-5.961-24.339-6.053-8.233-12.355-17.012-22-21.416-4.659-2.127-6.491-8.456-12.7-7.844-.5.05-1.134-1.572-1.769-2.367-1.964-2.461-6.162-1.554-7.51-4.963a3.448,3.448,0,0,1-.856.394c-1.316.206-2.81.857-3.934.467-13.495-4.682-26.855-9.719-40.937-12.562-12.907-2.606-25.738-4.126-39.024-3.282-8.256.524-16.64,3.286-25.117.222-1.632-.59-4.147,1.885-6.352,2.158-14.507,1.8-29.012,3.739-43.575,4.932-14.185,1.161-27.819,6.567-42.436,4.871-3.349-.389-7.834-.413-11.034,3.554-1.431,1.773-5.489-.571-8.831,1.138-3.571,1.827-8.408,1.178-12.69,1.62-.146.015-.271.185-.421.221-9.417,2.235-18.509,5.7-27.731,8.328-34.921,9.951-69.7,20.207-103.615,33.236-7.642,2.936-15.121,6.392-22.931,8.765-10.432,3.17-21.142,5.225-30.316,11.838-3.43,2.472-8.018,3.3-12,5.059a30.607,30.607,0,0,0-4.3,2.795ZM401.4,233.262l2.812-3.4c-1.248-.165-2.245-.574-3.066-.348a56.48,56.48,0,0,0-5.368,2.02l5.8,1.573c-1.2.9-2.338,2.414-3.632,2.567-2.461.292-5.127-.729-7.5-.229-3.426.721-6.58,2.747-10.007,3.46-26.406,5.5-52.928,10.462-79.244,16.353-10.371,2.322-20.423,6.279-30.418,10.029-16.988,6.373-34.972,9.909-51.311,18.119-1.372.689-3.166.513-4.582,1.146-5.326,2.383-10.638,4.812-15.836,7.459-4.8,2.444-9.327,5.435-14.19,7.729-4.7,2.215-9.728,3.7-14.5,5.766-12.828,5.537-23.2,14.8-34.036,23.237-5.989,4.661-11.039,10.6-16.141,16.3a61.7,61.7,0,0,0-6.761,10.107c-2.217,3.777-.317,5.767,3.469,6.2,11.14,1.269,22.3,3.4,33.447,3.4,52.358.022,104.069-7.373,155.685-15.118,28.868-4.331,57.6-9.655,86.293-15.05,47.474-8.926,94.579-19.5,140.984-33.032,32.659-9.524,64.951-20.089,96.431-33.063,4-1.649,3.587-3.156,1.227-5.763-7.856-8.681-18.135-14.184-28.636-17.921-13.494-4.8-27.917-6.981-41.906-10.428-1-.246-1.648-1.714-2.591-2.445-1.123-.872-2.387-1.562-3.59-2.331l-1.431,1.737,3.878.714-.918,1.208c-2.49-.437-5.073-1.526-7.454-1.189-7.475,1.057-14.646-1.342-22.05-1.36-12.6-.03-25.2-1.14-37.8-1.834-3.307-.182-6.6-.683-9.908-.7-2.961-.02-5.926.411-8.888.657-2.2.184-4.409.362-6.608.592-2.058.216-4.679,1.423-6.056.576-4.072-2.507-7.79-.944-11.539.07-3.251.88-6.252,2.293-8.223-2.012-.318-.694-1.8-.9-2.785-1.19-.123-.037-.825.944-.709,1.168,1.985,3.819-1.38,2.062-2.537,2.376a42.023,42.023,0,0,1-4.793.844c-2.744.41-5.49.811-8.241,1.168-3.335.433-7.182-.076-9.88,1.456C405.292,235.582,403.6,234.444,401.4,233.262ZM671.81,142.611c-.765.744-1.623,2.21-2.284,2.126-6.47-.828-12.9-1.942-19.357-2.9a26.327,26.327,0,0,0-3.718-.038,14.824,14.824,0,0,0,2.48,2.694c5.709,3.751,11.655,7.16,17.222,11.105,18.8,13.318,30.338,31.341,33.6,54.212.885,6.206.134,12.645.134,20.23,13.642-10.112,24.758-20.625,31.152-34.986,3.114-7,3.686-14.868-1.4-21.578-10.286-13.558-25.841-18.417-40.861-24.089C683.015,147.212,675.967,148.222,671.81,142.611ZM495.465,118.872c-66.528-.954-171.9,14.3-292.9,75.825A480.15,480.15,0,0,0,115.916,250.6C230.289,169.5,356.959,124.162,495.465,118.872ZM123.88,315.05l.59,1.036c6.421-4.128,12.744-8.418,19.281-12.354,23.132-13.928,47.125-26.236,72.388-35.758,22.223-8.376,44.492-16.94,67.335-23.279,28.691-7.961,57.91-14.1,87.059-20.289,12.235-2.6,24.868-3.34,37.33-4.848,7.284-.881,14.585-1.631,21.883-2.4,7.353-.774,14.711-1.5,22.067-2.241-5.7-.644-11.376-1.193-16.91-.541-16.888,1.99-33.745,4.276-50.57,6.748-44.02,6.466-87.467,15.663-129.44,30.563-24.871,8.83-49.332,18.9-73.632,29.221A239.959,239.959,0,0,0,123.88,315.05ZM568.381,345l-.843-1.328c-5.775,3.112-11.425,6.489-17.351,9.281-13.7,6.454-27.4,12.931-41.344,18.83-16.566,7.009-33.342,13.535-50.139,19.975-2.606,1-5.6,3.962-8.8.692a11.687,11.687,0,0,0-1.681,1.189c-1.848,1.328-3.51,3.249-5.571,3.9q-47.355,14.9-94.8,29.485c-4.616,1.428-9.281,2.7-13.923,4.045a17.592,17.592,0,0,0,7.612-.771Q392,415.057,442.431,399.7c3.326-1.016,4.806-.776,4.327,3.184-.158,1.307.743,2.743,1.16,4.119a39.546,39.546,0,0,0,2.175-3.728c1.336-2.959.695-6.544,5.193-8.178q25.551-9.279,50.723-19.589c11.092-4.547,21.868-9.868,32.756-14.906,7.088-3.28,14.186-6.55,21.151-10.077C562.905,349.009,565.569,346.857,568.381,345Zm-203.066.983.292,1.247c14.455-2.684,28.943-5.2,43.358-8.084,38.063-7.614,76.023-15.717,113.312-26.609,15.093-4.408,30.046-9.306,45-14.178,7.589-2.473,15.034-5.388,22.547-8.092,2.888-1.039,5.786-2.047,8.679-3.07q-.258-.767-.517-1.532C522.271,312.842,444.362,331.6,365.315,345.978Zm20.5,21.168c63.076-10.075,125.121-24.1,184.476-48.429A1310.541,1310.541,0,0,1,385.813,367.146Zm240.011-243.79.062-1.17-44.043-2.2-.069,1.412ZM319.239,434.767l.392,1.476,8.151-2.448q-.144-.534-.287-1.069Z"/></svg>